HIERARCHY
ROOT reference
{
  OFFSET 0 0 0
  CHANNELS 6 Xposition Yposition Zposition Zrotation Xrotation Yrotation
  JOINT Hips
  {
    OFFSET -49.1321 103.229 161.364
    CHANNELS 6 Xposition Yposition Zposition Zrotation Xrotation Yrotation
    JOINT Spine
    {
      OFFSET 0 7.86299 0
      CHANNELS 6 Xposition Yposition Zposition Zrotation Xrotation Yrotation
      JOINT Spine1
      {
        OFFSET 0 22.6654 0
        CHANNELS 6 Xposition Yposition Zposition Zrotation Xrotation Yrotation
        JOINT Neck
        {
          OFFSET 0 22.5723 2.05203
          CHANNELS 6 Xposition Yposition Zposition Zrotation Xrotation Yrotation
          JOINT Head
          {
            OFFSET 0 13.4246 -1.9178
            CHANNELS 6 Xposition Yposition Zposition Zrotation Xrotation Yrotation
            End Site
            {
              OFFSET 0 23.9725 0
            }
          }
        }
        JOINT LeftShoulder
        {
          OFFSET 3.7941 20.1358 -0.319195
          CHANNELS 6 Xposition Yposition Zposition Zrotation Xrotation Yrotation
          JOINT LeftArm
          {
            OFFSET 12.7665 0 0
            CHANNELS 6 Xposition Yposition Zposition Zrotation Xrotation Yrotation
            JOINT LeftForeArm
            {
              OFFSET 28.396 0 0
              CHANNELS 6 Xposition Yposition Zposition Zrotation Xrotation Yrotation
              JOINT LeftHand
              {
                OFFSET 28.7929 0 0
                CHANNELS 6 Xposition Yposition Zposition Zrotation Xrotation Yrotation
                End Site
                {
                  OFFSET 14.3835 0 0
                }
              }
            }
          }
        }
        JOINT RightShoulder
        {
          OFFSET -3.85764 20.1358 -0.319195
          CHANNELS 6 Xposition Yposition Zposition Zrotation Xrotation Yrotation
          JOINT RightArm
          {
            OFFSET -12.7665 0 0
            CHANNELS 6 Xposition Yposition Zposition Zrotation Xrotation Yrotation
            JOINT RightForeArm
            {
              OFFSET -28.396 0 0
              CHANNELS 6 Xposition Yposition Zposition Zrotation Xrotation Yrotation
              JOINT RightHand
              {
                OFFSET -28.7929 0 0
                CHANNELS 6 Xposition Yposition Zposition Zrotation Xrotation Yrotation
                End Site
                {
                  OFFSET -14.3835 0 0
                }
              }
            }
          }
        }
      }
    }
    JOINT LeftUpLeg
    {
      OFFSET 9.58901 0 0
      CHANNELS 6 Xposition Yposition Zposition Zrotation Xrotation Yrotation
      JOINT LeftLeg
      {
        OFFSET 0 -41.7092 0
        CHANNELS 6 Xposition Yposition Zposition Zrotation Xrotation Yrotation
        JOINT LeftFoot
        {
          OFFSET 0 -41.5308 0
          CHANNELS 6 Xposition Yposition Zposition Zrotation Xrotation Yrotation
          JOINT LeftToeBase
          {
            OFFSET 0 -6.23286 14.3835
            CHANNELS 6 Xposition Yposition Zposition Zrotation Xrotation Yrotation
            End Site
            {
              OFFSET 0 0 3.8356
            }
          }
        }
      }
    }
    JOINT RightUpLeg
    {
      OFFSET -9.58901 0 0
      CHANNELS 6 Xposition Yposition Zposition Zrotation Xrotation Yrotation
      JOINT RightLeg
      {
        OFFSET 0 -41.7092 0
        CHANNELS 6 Xposition Yposition Zposition Zrotation Xrotation Yrotation
        JOINT RightFoot
        {
          OFFSET 0 -41.5308 0
          CHANNELS 6 Xposition Yposition Zposition Zrotation Xrotation Yrotation
          JOINT RightToeBase
          {
            OFFSET 0 -6.23286 14.3835
            CHANNELS 6 Xposition Yposition Zposition Zrotation Xrotation Yrotation
            End Site
            {
              OFFSET 0 0 3.8356
            }
          }
        }
      }
    }
  }
}
MOTION
Frames:	7
Frame Time:	0.004
0 0 0 0 0 -0 26.5265 79.9683 -100.538 -5.77857 -5.65218 33.5497 0 7.86299 0 4.39875 -0.228283 -5.81276 0 22.6654 0 3.96734 9.28494 -6.14366 0 22.5723 2.05203 1.72897 6.72802 -8.29969 0 13.4246 -1.9178 6.8823 -16.8389 -6.83048 3.7941 20.1358 -0.319195 -16.7893 29.9264 4.50932 12.7665 0 0 -30.9283 21.6287 -34.5791 28.396 -7.10543e-015 0 17.7514 -21.3438 -59.8713 28.7929 0 0 25.7684 -9.43806 8.90361 -3.85764 20.1358 -0.319195 21.0505 46.5299 3.80053 -12.7665 0 -2.84217e-014 20.6991 36.6805 19.8705 -28.396 0 -7.10543e-015 10.4807 -14.8667 8.98963 -28.7929 0 -7.10543e-015 11.9118 -16.0181 -3.52971 9.58901 -1.42109e-014 0 4.97348 10.5508 5.17823 1.42109e-014 -41.7092 -1.42109e-014 -10.5706 31.8111 -5.01996 0 -41.5308 -1.42109e-014 14.7414 -34.7277 28.7052 0 -6.23286 14.3835 -5.96354e-016 -5.96354e-016 -3.18055e-015 -9.58901 -1.42109e-014 0 8.85754 -23.501 0.164608 0 -41.7092 0 5.76373 41.3977 -3.78651 0 -41.5308 1.42109e-014 -10.3007 -26.5679 -16.2921 0 -6.23286 14.3835 7.95139e-016 0 6.36111e-015 
0 0 0 0 0 -0 26.8627 79.9038 -100.038 -6.02057 -5.47334 33.3234 1.42109e-014 7.86299 0 4.52979 -0.670191 -5.78788 0 22.6654 -1.42109e-014 4.12598 9.34295 -6.15152 0 22.5723 2.05203 1.53221 6.9455 -8.22207 0 13.4246 -1.9178 6.68646 -17.0519 -6.77283 3.7941 20.1358 -0.319195 -17.4566 30.29 4.8629 12.7665 0 0 -30.7809 22.0083 -34.4221 28.396 7.10543e-015 2.84217e-014 17.3382 -20.4695 -57.2017 28.7929 0 -1.42109e-014 24.51 -9.31626 9.24618 -3.85764 20.1358 -0.319195 20.8617 46.6617 4.79869 -12.7665 -1.42109e-014 0 19.5367 36.117 20.983 -28.396 1.42109e-014 -1.42109e-014 10.0436 -15.0753 8.38089 -28.7929 1.42109e-014 0 10.9393 -16.1371 -3.80776 9.58901 0 1.42109e-014 5.7306 9.54468 4.63126 -1.42109e-014 -41.7092 0 -11.8948 34.034 -4.20082 0 -41.5308 -1.42109e-014 12.726 -34.2911 27.2428 0 -6.23286 14.3835 5.96354e-016 3.18055e-015 -0 -9.58901 1.42109e-014 0 9.20661 -23.7219 0.546819 -1.42109e-014 -41.7092 1.42109e-014 5.54146 42.1725 -3.38025 0 -41.5308 7.10543e-015 -10.1513 -26.852 -16.6636 0 -6.23286 14.3835 3.97569e-016 4.77083e-015 -3.18055e-015 
0 0 0 0 0 -0 27.2071 79.8909 -99.4576 -5.997 -5.46095 32.908 0 7.86299 0 4.49358 -0.69709 -5.74073 0 22.6654 -1.42109e-014 4.28688 9.11823 -6.10991 0 22.5723 2.05203 1.25498 7.30575 -8.09968 0 13.4246 -1.9178 6.58563 -17.1489 -6.6407 3.7941 20.1358 -0.319195 -18.2751 30.8848 5.52627 12.7665 1.42109e-014 0 -30.6103 21.9784 -34.2978 28.396 7.10543e-015 0 16.4215 -19.2058 -54.6384 28.7929 -1.42109e-014 -7.10543e-015 22.9688 -9.08099 9.325 -3.85764 20.1358 -0.319195 20.6229 46.8663 5.8453 -12.7665 0 -2.84217e-014 18.6445 35.456 21.9577 -28.396 0 0 9.32628 -14.9648 7.76252 -28.7929 -1.42109e-014 0 9.42917 -15.9553 -4.77001 9.58901 0 1.42109e-014 6.42316 8.86054 4.26768 0 -41.7092 0 -13.5242 36.2041 -2.59147 0 -41.5308 0 10.282 -33.2748 25.0909 0 -6.23286 14.3835 7.95139e-016 -3.97569e-016 -0 -9.58901 0 1.42109e-014 9.54499 -23.4602 1.17976 0 -41.7092 7.10543e-015 5.26875 42.6819 -3.19431 0 -41.5308 7.10543e-015 -9.91015 -27.2389 -16.7621 -7.10543e-015 -6.23286 14.3835 7.95139e-016 3.18055e-015 6.36111e-015 
0 0 0 0 0 -0 27.5331 79.8935 -98.934 -6.13589 -5.34416 32.6269 0 7.86299 0 4.5057 -0.982668 -5.70739 0 22.6654 -1.42109e-014 4.54382 9.09378 -6.10741 0 22.5723 2.05203 1.01655 7.5702 -8.00599 0 13.4246 -1.9178 6.39757 -17.2809 -6.56767 3.7941 20.1358 -0.319195 -18.7368 31.2261 5.74443 12.7665 1.42109e-014 0 -30.7243 22.2697 -33.955 28.396 -7.10543e-015 0 15.4303 -18.2151 -52.0338 28.7929 1.42109e-014 7.10543e-015 21.641 -9.02894 9.7828 -3.85764 20.1358 -0.319195 20.248 46.8077 6.73453 -12.7665 1.42109e-014 1.42109e-014 17.7742 34.6433 23.0993 -28.396 0 0 8.7177 -14.7732 7.2336 -28.7929 0 7.10543e-015 8.03823 -15.7071 -5.91497 9.58901 1.42109e-014 0 7.26898 7.79677 3.74011 1.42109e-014 -41.7092 -1.42109e-014 -15.3528 38.4397 -0.868199 0 -41.5308 0 8.29219 -31.7923 23.0461 0 -6.23286 14.3835 7.95139e-016 -3.97569e-015 -0 -9.58901 -1.42109e-014 1.42109e-014 9.84421 -23.3174 1.62484 -1.42109e-014 -41.7092 1.42109e-014 5.06664 42.9708 -3.12785 -1.42109e-014 -41.5308 0 -9.74838 -27.5974 -16.7324 0 -6.23286 14.3835 -7.95139e-016 3.18055e-015 -0 
0 0 0 0 0 -0 27.8988 79.8737 -98.4 -6.19071 -5.24228 32.389 1.42109e-014 7.86299 -1.42109e-014 4.45521 -1.13816 -5.69626 0 22.6654 -1.42109e-014 4.86587 8.86586 -6.11783 0 22.5723 2.05203 0.773858 7.95724 -7.92779 0 13.4246 -1.9178 6.1025 -17.392 -6.54314 3.7941 20.1358 -0.319195 -19.3312 31.7418 6.08984 12.7665 -1.42109e-014 0 -30.5749 22.703 -33.7509 28.396 2.13163e-014 -2.84217e-014 14.3529 -17.2344 -49.3376 28.7929 2.84217e-014 0 20.2925 -8.97768 10.3143 -3.85764 20.1358 -0.319195 19.8785 46.7725 7.47426 -12.7665 0 2.84217e-014 16.9866 33.7747 24.1685 -28.396 -1.42109e-014 0 8.03953 -14.4409 6.91826 -28.7929 0 7.10543e-015 6.38229 -15.3081 -7.35365 9.58901 0 0 8.05333 6.72767 3.24557 0 -41.7092 0 -17.2789 40.7529 1.10984 0 -41.5308 0 7.26454 -29.5374 20.6915 0 -6.23286 14.3835 -7.95139e-016 -4.77083e-015 9.54166e-015 -9.58901 1.42109e-014 0 9.98682 -22.9912 1.96726 0 -41.7092 7.10543e-015 4.90707 43.0827 -2.92996 0 -41.5308 7.10543e-015 -9.76901 -28.1849 -16.7676 7.10543e-015 -6.23286 14.3835 -1.19271e-015 0 3.18055e-015 
0 0 0 0 0 -0 28.2492 79.8601 -97.885 -6.22218 -5.16074 32.1703 0 7.86299 1.42109e-014 4.42503 -1.23897 -5.69844 0 22.6654 1.42109e-014 5.14958 8.59655 -6.13345 1.42109e-014 22.5723 2.05203 0.477243 8.61145 -7.78454 0 13.4246 -1.9178 5.95021 -17.8385 -6.38974 3.7941 20.1358 -0.319195 -19.7675 32.1941 6.32108 12.7665 0 0 -30.5409 23.0456 -33.4561 28.396 -7.10543e-015 0 12.9442 -16.2709 -46.6739 28.7929 0 0 18.5605 -9.10415 10.6056 -3.85764 20.1358 -0.319195 19.4323 46.6864 8.25687 -12.7665 -1.42109e-014 -1.42109e-014 16.4781 32.5896 25.1734 -28.396 0 0 7.38059 -13.6505 6.55432 -28.7929 0 0 4.71673 -14.3958 -8.36393 9.58901 0 0 8.87648 5.57518 2.79389 0 -41.7092 0 -19.4028 43.1103 3.14847 0 -41.5308 0 6.10979 -26.8094 18.7621 0 -6.23286 14.3835 -3.18055e-015 -7.15625e-015 1.27222e-014 -9.58901 0 1.42109e-014 10.1078 -22.5587 2.30619 0 -41.7092 0 4.82405 43.0285 -2.93532 0 -41.5308 7.10543e-015 -9.89043 -28.777 -16.7811 0 -6.23286 14.3835 3.97569e-016 1.59028e-015 -6.36111e-015 
0 0 0 0 0 -0 28.5428 79.8583 -97.4431 -6.37697 -4.9736 32.0524 0 7.86299 0 4.4812 -1.34425 -5.72638 -1.42109e-014 22.6654 0 5.38096 8.14096 -6.16202 0 22.5723 2.05203 0.11464 9.00319 -7.7077 7.10543e-015 13.4246 -1.9178 5.91171 -17.6967 -6.30189 3.7941 20.1358 -0.319195 -20.0784 32.6027 6.57487 12.7665 0 2.84217e-014 -30.2508 23.6988 -33.3116 28.396 -1.42109e-014 0 11.3357 -15.7137 -44.0213 28.7929 0 0 16.6053 -9.62501 11.2263 -3.85764 20.1358 -0.319195 19.0218 46.3689 8.96435 -12.7665 0 0 16.3586 31.2518 25.985 -28.396 0 0 6.71362 -12.582 6.34073 -28.7929 0 -1.42109e-014 2.33541 -13.1429 -9.94313 9.58901 0 0 9.80802 4.03884 2.37754 0 -41.7092 0 -21.7045 45.7027 3.97807 0 -41.5308 -1.42109e-014 5.64169 -23.2006 18.3246 0 -6.23286 14.3835 1.59028e-015 -4.77083e-015 -9.54166e-015 -9.58901 -1.42109e-014 0 10.2556 -22.3221 2.44486 0 -41.7092 0 4.63966 42.9168 -2.80148 0 -41.5308 -1.42109e-014 -9.98256 -29.2444 -16.8707 0 -6.23286 14.3835 -7.95139e-016 0 3.18055e-015 
